<svg xmlns="http://www.w3.org/2000/svg" viewBox="0 0 90 36" fill="none">
  <!-- Yelp Logo - Official Red Brand Color -->
  <g>
    <!-- Y -->
    <path d="M6 8 L10 8 L13 15 L16 8 L20 8 L15 18 L15 28 L11 28 L11 18 Z" fill="#D32323"/>

    <!-- e -->
    <path d="M21 17 C21 13 24 11 27 11 C30 11 32 12 33 14 L30 16 C29.5 15 28.5 14 27 14 C25.5 14 24 15 24 17 C24 17 24 17 24 17.5 L33 17.5 C33 17.5 33 18 33 19 C33 22 31 25 27 25 C24 25 21 23 21 19 C21 19 21 17 21 17 M24 19 C24 21 25.5 22 27 22 C28.5 22 30 21 30 19.5 L24 19.5 C24 19.5 24 19 24 19" fill="#D32323"/>

    <!-- l -->
    <rect x="35" y="6" width="3" height="22" fill="#D32323"/>

    <!-- p -->
    <path d="M40 11 L43 11 L43 12.5 C43.5 11.5 45 11 46 11 C49 11 51 13 51 17 C51 21 49 25 45 25 C44 25 43 24.5 43 24 L43 32 L40 32 Z M43 17 C43 19 44 22 46 22 C48 22 48 20 48 17 C48 14 47.5 14 46 14 C44.5 14 43 15 43 17" fill="#D32323"/>

    <!-- Yelp Burst (Star decoration) -->
    <g transform="translate(70, 18)">
      <path d="M0 -8 L2 -2 L8 -2 L3 2 L5 8 L0 4 L-5 8 L-3 2 L-8 -2 L-2 -2 Z" fill="#D32323" opacity="0.9"/>
    </g>
  </g>
</svg>
